<?xml version="1.0" standalone="no"?>
<!DOCTYPE svg PUBLIC "-//W3C//DTD SVG 20010904//EN"
 "http://www.w3.org/TR/2001/REC-SVG-20010904/DTD/svg10.dtd">
<svg version="1.0" xmlns="http://www.w3.org/2000/svg"
 width="180.000000pt" height="180.000000pt" viewBox="0 0 180.000000 180.000000"
 preserveAspectRatio="xMidYMid meet">
<metadata>
Created by potrace 1.11, written by Peter Selinger 2001-2013
</metadata>
<g transform="translate(0.000000,180.000000) scale(0.100000,-0.100000)"
fill="#000000" stroke="none">
<path d="M1362 1770 c-37 -27 -93 -100 -133 -175 -9 -17 -22 -28 -30 -27 -102
25 -174 35 -274 37 -165 3 -226 -6 -383 -56 -32 -10 -38 -8 -115 45 -72 48
-137 78 -137 63 0 -3 18 -25 40 -49 21 -23 51 -64 65 -90 l26 -47 -42 -38
c-97 -87 -163 -180 -206 -290 -24 -60 -27 -82 -27 -183 1 -100 4 -124 28 -184
14 -38 41 -88 60 -110 38 -47 129 -167 141 -186 9 -15 13 -53 14 -149 1 -98
13 -65 13 39 1 50 4 93 8 95 5 3 27 -11 50 -30 23 -19 69 -54 102 -77 58 -41
59 -43 58 -87 -2 -65 -1 -73 10 -66 5 3 7 22 4 41 -10 62 -1 68 53 40 88 -45
86 -41 84 -148 -1 -53 2 -99 7 -102 5 -3 16 4 26 15 16 19 18 20 30 4 10 -14
13 -10 15 30 5 102 38 136 161 166 45 10 82 19 83 19 1 0 2 -27 1 -60 0 -33 3
-60 8 -60 4 0 8 27 8 60 0 49 3 62 18 66 9 3 45 17 80 31 46 19 66 23 74 15 7
-7 12 -48 12 -97 0 -47 5 -85 10 -85 5 0 7 40 3 100 l-6 99 39 31 40 32 0 -61
c0 -34 4 -61 9 -61 16 0 18 13 12 65 -9 63 0 82 81 166 117 122 180 280 174
437 -5 132 -22 186 -92 293 -49 74 -180 204 -237 234 -35 18 -38 23 -32 53 7
38 65 166 100 222 39 61 30 66 -33 20z m-288 -288 c32 -12 61 -24 65 -27 3 -4
-6 -39 -21 -78 -15 -40 -50 -135 -78 -212 -29 -77 -86 -237 -126 -355 -41
-118 -77 -222 -80 -230 -4 -9 -14 15 -25 55 -84 302 -187 650 -223 754 -9 24
-14 47 -11 51 8 13 95 40 128 40 25 0 28 -3 27 -27 -4 -49 0 -64 11 -57 6 4 9
20 6 39 -7 43 1 52 52 59 24 3 46 8 49 11 13 13 172 -3 226 -23z m233 -133
c29 -23 55 -51 58 -63 10 -44 12 -112 4 -132 -5 -14 -3 -28 5 -40 12 -15 14
-10 15 42 2 32 3 65 4 72 3 48 81 -77 98 -157 71 -333 -180 -661 -506 -661
-54 0 -55 1 -55 29 0 66 42 269 80 385 60 185 219 566 236 566 4 0 31 -19 61
-41z m-817 -54 c58 -100 96 -202 165 -441 68 -236 96 -434 61 -434 -24 0 -161
74 -213 116 -192 151 -294 431 -224 615 28 73 73 141 124 184 45 39 41 41 87
-40z"/>
<path d="M390 224 c0 -8 5 -12 10 -9 6 4 8 11 5 16 -9 14 -15 11 -15 -7z"/>
<path d="M1097 116 c-10 -26 -8 -66 2 -66 15 0 22 35 13 60 -8 20 -9 21 -15 6z"/>
<path d="M1290 80 c0 -27 5 -50 10 -50 9 0 15 22 11 43 -1 4 -2 19 -3 32 -4
46 -18 26 -18 -25z"/>
</g>
</svg>
